<svg width="243" height="114" viewBox="0 0 243 114" fill="none" xmlns="http://www.w3.org/2000/svg">
<path d="M52.7658 114C50.3888 113.999 48.0655 113.29 46.0893 111.963C44.1131 110.635 42.5727 108.749 41.6628 106.542C40.753 104.336 40.5144 101.907 40.9772 99.5646C41.4401 97.2217 42.5836 95.0692 44.2633 93.3791L80.3938 57.0657L44.2633 20.7553C42.0652 18.478 40.8466 15.4233 40.8707 12.2509C40.8948 9.0784 42.1596 6.04273 44.392 3.79939C46.6244 1.55605 49.6453 0.285051 52.8023 0.26085C55.9593 0.236649 58.9991 1.46118 61.2653 3.67004L99.2575 41.8482C101.247 43.8464 102.824 46.2187 103.901 48.8298C104.977 51.4409 105.532 54.2395 105.532 57.0657C105.532 59.892 104.977 62.6906 103.901 65.3017C102.824 67.9127 101.247 70.2851 99.2575 72.2832L61.2653 110.461C60.1507 111.585 58.826 112.476 57.3673 113.084C55.9086 113.691 54.3447 114.002 52.7658 114Z" fill="url(#paint0_linear_1937_667)"/>
<path opacity="0.4" d="M52.7657 114C51.1863 114.003 49.622 113.692 48.1628 113.084C46.7035 112.477 45.3782 111.586 44.2632 110.462L6.27402 72.2834C4.28496 70.2852 2.7071 67.9129 1.63059 65.3018C0.554081 62.6908 0 59.8922 0 57.0659C0 54.2396 0.554081 51.441 1.63059 48.83C2.7071 46.2189 4.28496 43.8466 6.27402 41.8484L44.2632 3.67023C45.3733 2.52014 46.6999 1.60341 48.1659 0.973368C49.6319 0.34333 51.2079 0.0125737 52.8022 0.00035158C54.3966 -0.0118706 55.9774 0.294685 57.4528 0.902175C58.9282 1.50967 60.2686 2.40596 61.396 3.5389C62.5234 4.67184 63.4153 6.01878 64.0198 7.50136C64.6244 8.98394 64.9294 10.5725 64.9173 12.1747C64.9051 13.7769 64.576 15.3606 63.949 16.8338C63.322 18.3069 62.4098 19.64 61.2653 20.7555L25.1348 57.0659L61.2653 93.3763C62.9448 95.0662 64.0882 97.2184 64.5512 99.561C65.0141 101.904 64.7758 104.332 63.8663 106.538C62.9568 108.745 61.4169 110.631 59.4411 111.958C57.4654 113.286 55.1425 113.995 52.7657 113.997V114Z" fill="url(#paint1_linear_1937_667)"/>
<path d="M128.637 4.93732C131.901 4.92846 135.094 5.89246 137.813 7.70741C140.532 9.52235 142.654 12.1067 143.911 15.1337C145.168 18.1606 145.504 21.4942 144.875 24.7128C144.247 27.9315 142.683 30.8906 140.381 33.2159C138.079 35.5413 135.142 37.1284 131.943 37.7766C128.743 38.4249 125.424 38.1051 122.405 36.8577C119.387 35.6103 116.804 33.4913 114.984 30.7687C113.163 28.0462 112.187 24.8424 112.179 21.5624C112.178 17.1679 113.909 12.9518 116.993 9.83635C120.077 6.72086 124.264 4.95944 128.637 4.93732V4.93732ZM128.637 13.604C127.079 13.6034 125.555 14.0673 124.259 14.9369C122.963 15.8066 121.953 17.0429 121.356 18.4896C120.76 19.9363 120.603 21.5283 120.907 23.0643C121.211 24.6002 121.961 26.0111 123.063 27.1184C124.165 28.2257 125.569 28.9798 127.098 29.2851C128.626 29.5905 130.21 29.4335 131.65 28.8339C133.09 28.2344 134.32 27.2192 135.185 25.9169C136.051 24.6146 136.513 23.0836 136.512 21.5176C136.514 20.4777 136.312 19.4476 135.917 18.4864C135.522 17.5252 134.942 16.6519 134.211 15.9165C133.479 15.1812 132.61 14.5984 131.653 14.2016C130.697 13.8047 129.672 13.6016 128.637 13.604Z" fill="white"/>
<path d="M153.365 4.93726H167.272C170.49 4.94357 173.575 6.23117 175.851 8.51814C178.127 10.8051 179.408 13.9051 179.414 17.1393C179.414 23.8186 174.002 29.2996 167.447 29.2996H162.034V38.1007H153.365V4.93726ZM162.034 21.7835H167.388C168.019 21.7994 168.647 21.6882 169.234 21.4565C169.822 21.2247 170.358 20.8772 170.81 20.4342C171.262 19.9913 171.621 19.4619 171.866 18.8773C172.111 18.2927 172.238 17.6647 172.238 17.0303C172.238 16.3958 172.111 15.7678 171.866 15.1832C171.621 14.5986 171.262 14.0692 170.81 13.6263C170.358 13.1833 169.822 12.8357 169.234 12.604C168.647 12.3723 168.019 12.2611 167.388 12.277H162.034V21.7835Z" fill="white"/>
<path d="M186.278 4.93726H206.798V12.1425H194.962V17.5368H205.436V24.8796H194.947V30.9821H206.783V38.1007H186.263L186.278 4.93726Z" fill="white"/>
<path d="M239.431 38.101L223.857 22.3993V38.098H215.188V4.92554H218.709L234.331 20.5764V4.93749H243V38.1099L239.431 38.101Z" fill="white"/>
<path d="M116.807 42.8806H129.645C134.238 42.8806 138.643 44.714 141.891 47.9776C145.138 51.2411 146.963 55.6674 146.963 60.2827C146.963 64.898 145.138 69.3243 141.891 72.5878C138.643 75.8514 134.238 77.6848 129.645 77.6848H116.807V42.8806ZM125.86 68.5818H129.693C130.783 68.6026 131.866 68.405 132.878 68.0004C133.891 67.5957 134.813 66.9923 135.591 66.2253C136.369 65.4582 136.987 64.5431 137.409 63.5332C137.831 62.5234 138.048 61.4392 138.048 60.344C138.048 59.2488 137.831 58.1645 137.409 57.1547C136.987 56.1449 136.369 55.2297 135.591 54.4627C134.813 53.6957 133.891 53.0922 132.878 52.6876C131.866 52.2829 130.783 52.0853 129.693 52.1061H125.86V68.5818Z" fill="white"/>
<path d="M161.008 42.7212H182.528V50.2851H170.106V55.9633H181.109V63.6407H170.106V70.0451H182.528V77.5164H161.008V42.7212Z" fill="white"/>
<path d="M230.102 43.217L213.986 78.069H209.823L193.665 43.217H202.81L211.907 63.0428L221.052 43.226L230.102 43.217Z" fill="white"/>
<path opacity="0.7" d="M212.452 104.398H238.703V109.18H212.452V104.398Z" fill="white"/>
<g opacity="0.7">
<path opacity="0.7" d="M130.165 98.8214C130.139 99.7047 129.772 100.543 129.141 101.159C128.51 101.774 127.665 102.119 126.785 102.119C125.906 102.119 125.061 101.774 124.43 101.159C123.799 100.543 123.432 99.7047 123.406 98.8214V83.1885H116.565V98.923C116.565 100.27 116.83 101.604 117.343 102.849C117.856 104.094 118.608 105.225 119.556 106.178C120.504 107.13 121.629 107.886 122.868 108.402C124.107 108.917 125.434 109.183 126.775 109.183C128.116 109.183 129.443 108.917 130.682 108.402C131.921 107.886 133.046 107.13 133.994 106.178C134.942 105.225 135.694 104.094 136.207 102.849C136.721 101.604 136.985 100.27 136.985 98.923V83.1885H130.145L130.165 98.8214Z" fill="white"/>
<path opacity="0.7" d="M139.495 109.183H146.287V98.8214H154.599V93.0326H146.287V88.8039H155.706V83.1885H139.495V109.183Z" fill="white"/>
<path opacity="0.7" d="M171.137 102.285C167.619 102.285 165.068 99.7208 165.068 96.1854C165.068 92.65 167.619 90.0858 171.137 90.0858C171.939 90.0647 172.737 90.2039 173.484 90.4953C174.231 90.7867 174.914 91.2245 175.491 91.7833L180.25 86.9658C179.056 85.7624 177.636 84.8089 176.073 84.1605C174.51 83.5121 172.834 83.1817 171.143 83.1883C169.013 83.1855 166.914 83.7116 165.034 84.72C163.154 85.7283 161.552 87.1876 160.368 88.9683C159.185 90.7489 158.457 92.7958 158.251 94.9269C158.044 97.0581 158.364 99.2075 159.183 101.184C160.002 103.161 161.294 104.904 162.945 106.258C164.595 107.613 166.553 108.536 168.644 108.947C170.736 109.358 172.895 109.243 174.932 108.613C176.968 107.983 178.819 106.858 180.318 105.336L175.491 100.555C174.921 101.125 174.241 101.573 173.492 101.871C172.743 102.168 171.942 102.309 171.137 102.285Z" fill="white"/>
<path opacity="0.7" d="M195.714 95.2141V99.8015H200.716C200.101 100.654 199.278 101.335 198.326 101.777C197.375 102.22 196.326 102.41 195.281 102.33C194.236 102.249 193.228 101.901 192.355 101.318C191.481 100.735 190.771 99.9368 190.292 98.9997C189.813 98.0625 189.581 97.0175 189.618 95.9646C189.655 94.9116 189.96 93.8857 190.504 92.9849C191.047 92.084 191.812 91.3382 192.724 90.8187C193.636 90.2991 194.665 90.0232 195.714 90.0171C197.321 90.0101 198.867 90.6318 200.026 91.7504L204.82 86.9688C202.697 84.8546 199.911 83.5449 196.936 83.2624C193.96 82.98 190.979 83.7423 188.5 85.4196C186.021 87.0969 184.197 89.5857 183.338 92.4624C182.479 95.339 182.638 98.4259 183.789 101.198C184.94 103.97 187.01 106.255 189.649 107.666C192.288 109.076 195.331 109.524 198.262 108.933C201.192 108.343 203.828 106.75 205.722 104.427C207.615 102.103 208.649 99.1918 208.648 96.1884V95.2171L195.714 95.2141Z" fill="white"/>
</g>
<defs>
<linearGradient id="paint0_linear_1937_667" x1="21.9468" y1="88.0357" x2="83.8829" y2="26.3984" gradientUnits="userSpaceOnUse">
<stop stop-color="white"/>
<stop offset="1" stop-color="white"/>
</linearGradient>
<linearGradient id="paint1_linear_1937_667" x1="21.9467" y1="88.0358" x2="83.8828" y2="26.3985" gradientUnits="userSpaceOnUse">
<stop stop-color="white"/>
<stop offset="1" stop-color="white"/>
</linearGradient>
</defs>
</svg>
