<svg style="display:none">
<symbol id="Comunidade" xmlns="http://www.w3.org/2000/svg" height="111" viewBox="0 0 166 111" fill="none"><path fill-rule="evenodd" clip-rule="evenodd" d="M83.0346 6.92358C78.2828 6.92358 74.4233 10.79 74.4233 15.5417C74.4233 20.2935 78.2828 24.153 83.0346 24.153C87.7863 24.153 91.6458 20.2935 91.6458 15.5417C91.6458 10.79 87.7863 6.92358 83.0346 6.92358ZM83.0346 31.0766C74.4717 31.0766 67.5067 24.1046 67.5067 15.5417C67.5067 6.972 74.4717 0 83.0346 0C91.5905 0 98.5625 6.972 98.5625 15.5417C98.5625 24.1046 91.5905 31.0766 83.0346 31.0766ZM129.653 6.92358C124.908 6.92358 121.042 10.79 121.042 15.5417C121.042 20.2935 124.908 24.153 129.653 24.153C134.405 24.153 138.264 20.2935 138.264 15.5417C138.264 10.79 134.405 6.92358 129.653 6.92358ZM129.653 31.0766C121.09 31.0766 114.125 24.1046 114.125 15.5417C114.125 6.972 121.09 0 129.653 0C138.223 0 145.181 6.972 145.181 15.5417C145.181 24.1046 138.223 31.0766 129.653 31.0766ZM36.3471 6.92358C31.5953 6.92358 27.7358 10.79 27.7358 15.5417C27.7358 20.2935 31.5953 24.153 36.3471 24.153C41.0988 24.153 44.9583 20.2935 44.9583 15.5417C44.9583 10.79 41.0988 6.92358 36.3471 6.92358ZM36.3471 31.0766C27.7843 31.0766 20.8192 24.1046 20.8192 15.5417C20.8192 6.972 27.7843 0 36.3471 0C44.9099 0 51.875 6.972 51.875 15.5417C51.875 24.1046 44.9099 31.0766 36.3471 31.0766ZM130.863 73.6902C134.605 73.6902 137.635 76.4776 137.904 80.1572C138.126 83.1867 139.91 102.706 139.91 102.706C140.069 104.518 142.85 104.442 142.926 102.719L145.105 54.7454C145.25 51.3632 149.739 50.1666 151.503 53.1062L159.09 65.57L151.779 42.5444C151.516 41.6937 150.52 41.085 149.414 41.085H16.5931C15.4795 41.085 14.4835 41.6937 14.2207 42.5444L6.889 66.0611L14.4973 53.1062C16.3095 50.132 20.7569 51.4047 20.9022 54.7454L23.074 102.719C23.1639 104.407 25.9237 104.428 26.0966 102.706C26.0966 102.706 27.8742 83.1867 28.1024 80.1503C28.3722 76.4776 31.3947 73.6902 35.1367 73.6902C38.3529 73.6902 41.8458 76.1179 42.1432 80.1572C42.3715 83.1867 44.1491 102.706 44.1491 102.706C44.3358 104.532 47.1717 104.559 47.1717 102.712C47.7388 90.1795 50.0559 50.0628 50.0559 50.0628C50.1666 48.2576 51.6537 46.8327 53.4658 46.812C60.4309 46.7359 57.7611 46.7359 64.6985 46.812C66.5107 46.8327 67.9977 48.2576 68.1015 50.0628C68.1015 50.0628 70.052 90.2002 70.9927 102.719C71.1448 104.739 73.9461 104.559 74.0083 102.712C74.0083 102.712 75.7928 83.1867 76.0211 80.1503C76.3116 76.1179 79.8114 73.6902 83.0208 73.6902C86.2716 73.6902 89.7783 76.1179 90.0619 80.1711C90.2902 83.2905 92.0747 102.706 92.0747 102.706C92.3029 104.469 94.9866 104.525 95.0903 102.712C95.6575 90.1795 97.9746 50.0628 97.9746 50.0628C98.0783 48.2576 99.5793 46.8327 101.391 46.812C108.287 46.7359 105.645 46.7359 112.527 46.812C114.339 46.8327 115.84 48.2576 115.944 50.0628C115.944 50.0628 118.261 90.1795 118.828 102.719C118.925 104.386 121.692 104.324 121.844 102.719C121.844 102.719 123.628 83.2905 123.857 80.1503C124.14 76.1179 127.64 73.6902 130.863 73.6902ZM141.418 110.667C136.991 110.667 133.374 107.492 133.021 103.3C133.021 103.3 131.23 83.7262 131.002 80.6622C130.524 83.83 128.733 103.3 128.733 103.3C128.394 107.492 124.784 110.667 120.35 110.667C115.82 110.667 112.126 107.312 111.925 103.038C111.448 92.6764 109.781 63.4604 109.221 53.701H104.698C104.137 63.4604 102.47 92.6764 101.993 103.031C101.793 107.312 98.0991 110.667 93.5756 110.667C89.142 110.667 85.5315 107.492 85.1857 103.287C85.1857 103.287 83.3942 83.83 83.1591 80.6622C82.6887 83.7262 80.8973 103.3 80.8973 103.3C80.5515 107.492 76.941 110.667 72.5074 110.667C67.9839 110.667 64.2835 107.312 64.0829 103.038C63.6057 92.6764 61.9457 63.4673 61.3854 53.701H56.7789C56.2187 63.4673 54.5517 92.6764 54.0814 103.031C53.8808 107.312 50.1804 110.667 45.6638 110.667C41.2372 110.667 37.6197 107.492 37.2601 103.3C37.2601 103.3 35.4756 83.7262 35.2473 80.6622C34.7701 83.7262 32.9856 103.3 32.9856 103.3C32.6259 107.492 29.0154 110.667 24.5888 110.667C20.0653 110.667 16.3648 107.312 16.1642 103.038L14.5042 66.3931L12.8166 69.1667C11.1981 71.8572 7.56683 73.1022 4.50275 72.0232C1.81217 71.0826 0 68.6064 0 65.8605L0.283583 64.0068L7.62217 40.4832C8.798 36.7067 12.4085 34.1614 16.5931 34.1614H149.414C153.529 34.1614 157.223 36.7552 158.392 40.4832L165.716 63.993L166 65.8605C166 68.6133 164.181 71.0826 161.49 72.0232C158.62 73.0538 154.809 71.8642 153.183 69.1597L151.489 66.3862L149.829 103.031C149.642 107.312 145.949 110.667 141.418 110.667Z" fill="#F0F0F0"/></symbol>
<symbol id="OpenSource" xmlns="http://www.w3.org/2000/svg" height="135" viewBox="0 0 102 135" fill="none"><path fill-rule="evenodd" clip-rule="evenodd" d="M12.75 97.4363L0 90.5681L12.6593 73.3163L0 62.2913L26.707 47.88C27.863 49.1794 29.0303 50.715 30.1297 52.4194L9.82033 63.3769L16.5127 69.21L33.8413 59.7262C34.5157 61.4925 35.0653 63.3319 35.4393 65.2219L16.9603 75.3525L51.0623 92.8406L85 75.375L67.1387 65.5594C67.4843 63.6075 67.9547 61.8075 68.544 60.1144L85.1643 69.1988L92.157 63.0394L72.3237 52.605C73.3607 51.0581 74.5223 49.5675 75.803 48.0881L102 61.8638L89.1877 73.1587L89.25 73.1925L102 90.5231L89.25 97.4081V114.772L51 135L12.75 114.772V97.4363ZM53.8107 96.9075V127.153L83.589 111.409V100.463L63.75 111.178L53.8107 96.9075ZM18.411 100.485V111.409L48.1497 127.136V96.9131L38.25 111.178L18.411 100.485ZM8.36967 88.695L36.4763 103.837L42.704 94.8712L14.467 80.3869L8.36967 88.695ZM59.3017 94.9219L65.5123 103.837L93.6247 88.6612L87.5443 80.3869L59.3017 94.9219ZM52.547 78.525H49.5947C48.824 78.525 48.076 78.2663 47.566 77.8106L43.6447 75.2513H58.497L54.5757 77.8106C54.0713 78.2663 53.3233 78.525 52.547 78.525ZM58.6387 71.9775H43.5937C42.6813 71.9775 41.9447 71.2519 41.9447 70.3462C41.9447 69.4406 42.6813 68.7094 43.5937 68.7094H58.6387C59.551 68.7094 60.2877 69.4406 60.2877 70.3462C60.2877 71.2519 59.551 71.9775 58.6387 71.9775ZM60.265 65.4356H41.8767C41.8767 52.515 31.2687 46.9237 31.2687 35.2463C31.2687 23.0625 41.1627 16.3575 51.0623 16.3575C60.9677 16.3575 70.8787 23.0737 70.8787 35.2463C70.8787 46.9237 60.2707 52.335 60.265 65.4356ZM55.1593 59.8275C56.2247 54.4612 58.6953 50.3269 60.928 46.575C63.3307 42.5588 65.2177 39.3806 65.2177 35.2463C65.2177 26.5275 58.0947 21.9656 51.0623 21.9656C44.0413 21.9656 36.924 26.5275 36.924 35.2463C36.924 39.4031 38.8337 42.6262 41.2477 46.6931C43.469 50.4281 45.9057 54.5456 46.9823 59.8275H55.1593ZM24.803 35.5219H14.7617V29.9137H25.0637C24.8427 31.1456 24.7293 32.4169 24.7293 33.705L24.803 35.5219ZM87.38 35.5219H77.401L77.4803 33.705C77.4803 32.4169 77.367 31.1456 77.1403 29.9137H87.38V35.5219ZM30.8097 18.585C29.5233 19.9744 28.407 21.4987 27.5003 23.1356L19.346 17.3925L22.6213 12.8194L30.8097 18.585ZM71.3773 18.5569L79.5203 12.8194L82.7957 17.3925L74.6923 23.1019C73.78 21.4706 72.6637 19.9463 71.3773 18.5569ZM41.344 11.6944C39.542 12.3413 37.8363 13.1625 36.2497 14.13L31.875 5.27062L36.958 2.80687L41.344 11.6944ZM60.809 11.6719L65.1893 2.80687L70.2667 5.27062L65.909 14.1019C64.3223 13.1344 62.6167 12.3131 60.809 11.6719ZM53.9013 10.1475C52.9833 10.0575 52.0483 10.0125 51.102 10.0125C50.1387 10.0125 49.181 10.0631 48.2403 10.1531V0H53.9013V10.1475Z" fill="#F0F0F0"/></symbol>
<symbol id="Empoderamento" xmlns="http://www.w3.org/2000/svg" height="128" viewBox="0 0 128 128" fill="none"><path fill-rule="evenodd" clip-rule="evenodd" d="M10.0587 79.0667L23.5733 101.68L20.0053 102.507C16.432 103.328 13.8613 105.328 12.7733 108.117C11.9147 110.336 12.112 112.784 13.3013 114.512C14.5813 116.389 16.7147 117.461 19.152 117.461C23.4613 117.461 27.6853 114.075 28.9387 109.867C29.4827 108.059 29.728 105.253 27.84 102.181L12.8907 77.3493L10.0587 79.0667ZM19.152 122.795C14.928 122.795 11.1893 120.88 8.90667 117.547C6.736 114.368 6.31467 110.027 7.808 106.192C9.14133 102.763 11.8347 100.059 15.4187 98.4427L2.75733 77.2587L14.6987 70.0107L32.3893 99.408C34.6613 103.088 35.2533 107.36 34.048 111.397C32.576 116.336 27.1787 122.795 19.152 122.795ZM96.128 127.995C97.5947 127.941 98.7467 126.715 98.6987 125.232C98.3947 116.544 100.613 114.891 106.037 114.288C114.048 113.381 115.157 108.507 115.957 104.944C116.816 101.173 117.381 98.672 125.451 98.2453C126.917 98.1707 128.048 96.9227 127.963 95.44C127.899 93.9733 126.667 92.8267 125.168 92.9227C113.995 93.504 111.979 98.3893 110.763 103.765C110.021 107.013 109.691 108.507 105.445 108.981C94.3787 110.224 93.0987 117.621 93.3653 125.419C93.4187 126.859 94.6027 127.995 96.032 127.995H96.128ZM110.341 69.1573L114.667 71.2267L114.037 66.464L117.344 62.9813L112.619 62.1067L110.341 57.8827L108.053 62.1067L103.333 62.9813L106.64 66.464L106.005 71.2267L110.341 69.1573ZM121.253 80.288L110.341 75.072L99.424 80.288L101.019 68.288L92.6773 59.52L104.576 57.3227L110.341 46.6773L116.101 57.3227L127.995 59.52L119.664 68.288L121.253 80.288ZM69.936 5.33333C68.384 5.33333 66.88 5.664 65.4613 6.32C60.0853 8.79467 57.7227 15.1893 60.192 20.5707C62.5867 25.7813 69.1787 28.256 74.4373 25.8453C77.0453 24.64 79.024 22.5013 80.016 19.808C81.0133 17.1147 80.896 14.1973 79.7013 11.5893C77.952 7.792 74.1227 5.33333 69.936 5.33333ZM69.9573 32.1653C63.7013 32.1653 57.9627 28.4907 55.3493 22.8053C51.6533 14.7467 55.184 5.17867 63.232 1.472C65.3547 0.496 67.6107 0 69.936 0C76.1973 0 81.936 3.67467 84.544 9.36C86.336 13.2587 86.5013 17.6267 85.0187 21.6533C83.5307 25.6907 80.5653 28.896 76.6667 30.688C74.544 31.6693 72.288 32.1653 69.9573 32.1653ZM30.576 18.64C35.4347 26.48 49.632 47.2533 49.632 47.2533L45.4453 65.3813C44.1813 70.1067 44.752 73.1307 45.696 76.896L56.768 122.715L58.8267 81.9413L82.048 92.5227C82.048 92.5227 78.8373 108.96 77.76 114.576C77.76 114.576 85.3813 96.5227 87.2107 92.0267C87.9467 90.2027 87.6053 89.1093 85.6053 86.9013C81.8507 82.7253 72.0107 72.4693 72.0107 72.4693L76.2293 54.0747C76.2293 54.0747 98.6133 38.4053 105.397 33.2107C105.739 32.9547 105.733 32.7573 105.68 32.6027L105.2 32.2507C100.464 34.032 92.1707 37.6267 85.84 40.368L79.6267 43.056C77.6747 43.888 75.4933 44.064 73.44 43.536L55.7067 39.0773C53.744 38.5867 51.9093 37.6213 50.3947 36.272L30.576 18.64ZM56.8213 127.931C54.6827 127.92 52.0693 126.608 51.1733 122.933C48.5173 112.085 40.512 78.16 40.512 78.16C39.4613 73.9413 38.7093 69.9467 40.272 64.0907L43.9093 48.3307C41.1307 44.2613 30.352 28.4533 26.1013 21.9947C24.912 20.1813 24.7733 18.0373 25.7333 16.2507C27.3173 13.312 31.6053 12.416 34.112 14.6507L53.936 32.2827C54.8107 33.056 55.872 33.6213 57.0027 33.904L74.7413 38.3627C75.664 38.6027 76.6507 38.5227 77.5307 38.144L83.728 35.472C90.1067 32.7093 98.4747 29.0827 102.784 27.3867C106.069 26.0853 109.669 27.7493 110.736 30.8907C111.541 33.2853 110.72 35.8613 108.635 37.456C102.453 42.1813 85.0613 54.4 80.9707 57.2747L77.856 70.8533C80.288 73.3973 86.5493 79.9733 89.5573 83.3173C91.9307 85.9307 94.0907 89.2533 92.1493 94.048C90.32 98.5547 87.04 106.304 84.5973 112.096L82.6453 116.715C81.1307 120.315 75.9093 121.179 73.5893 118.368C72.5493 117.109 72.1707 115.397 72.5227 113.579C73.3493 109.264 75.1893 99.8293 76.0053 95.6373L63.824 90.0853C63.4667 98.3893 62.6507 117.307 62.3627 122.485C62.1867 125.637 59.856 127.931 56.8213 127.931ZM15.648 31.9947L0 47.6587L15.648 63.3227L31.3013 47.6587L15.648 31.9947ZM15.648 39.5413L23.76 47.6587L15.648 55.776L7.54133 47.6587L15.648 39.5413Z" fill="#F0F0F0"/></symbol>
</svg>
