<svg width="36" height="35" viewBox="0 0 36 35" fill="none" xmlns="http://www.w3.org/2000/svg">
<g clip-path="url(#clip0_1937_656)">
<path fill-rule="evenodd" clip-rule="evenodd" d="M17.5754 0C7.91252 0 0.0754395 7.83417 0.0754395 17.5C0.0754395 27.1644 7.91252 35 17.5754 35C27.2398 35 35.0754 27.1644 35.0754 17.5C35.0754 7.83417 27.2398 0 17.5754 0ZM22.3121 26.7575L21.7711 24.869L23.0777 26.0837L24.3129 27.2271L26.5077 29.1667V10.8529C26.5077 9.68917 25.5686 8.75 24.415 8.75H10.7359C9.58231 8.75 8.64315 9.68917 8.64315 10.8529V24.6546C8.64315 25.8183 9.58231 26.7575 10.7359 26.7575H22.3121ZM20.4746 22.0821L19.8009 21.2552C21.1381 20.8775 21.6486 20.0404 21.6486 20.0404C21.23 20.316 20.8319 20.51 20.4746 20.6427C19.9642 20.8571 19.4742 21 18.9944 21.0817C18.0144 21.2654 17.1161 21.2144 16.3504 21.0715C15.7686 20.9592 15.2684 20.7958 14.8498 20.6325C14.615 20.5406 14.3598 20.4283 14.1046 20.2854L14.0638 20.2621L14.0536 20.2577L14.0127 20.2344L13.9719 20.2038L13.6861 20.0302C13.6861 20.0302 14.1761 20.8469 15.4725 21.2348L14.7886 22.0821C12.5325 22.0106 11.675 20.5304 11.675 20.5304C11.675 17.2433 13.145 14.579 13.145 14.579C14.615 13.4765 16.0136 13.5071 16.0136 13.5071L16.1156 13.6296C14.2781 14.1604 13.4309 14.9669 13.4309 14.9669L14.0331 14.6708C15.1254 14.191 15.9931 14.0583 16.3504 14.0277L16.524 14.0073C17.1467 13.9256 17.8511 13.9052 18.5861 13.9869C19.5559 14.0992 20.5971 14.385 21.6588 14.9669C21.6588 14.9669 20.8523 14.2013 19.1169 13.6704L19.2598 13.5071C19.2598 13.5071 20.6584 13.4765 22.1284 14.579C22.1284 14.579 23.5984 17.2433 23.5984 20.5304C23.5984 20.5304 22.7627 21.9552 20.4746 22.0821ZM19.4538 17.3148C18.8719 17.3148 18.4125 17.8252 18.4125 18.4479C18.4125 19.0706 18.8821 19.581 19.4538 19.581C20.0356 19.581 20.495 19.0706 20.495 18.4479C20.495 17.8252 20.0356 17.3148 19.4538 17.3148ZM15.7277 17.3148C15.1459 17.3148 14.6865 17.8252 14.6865 18.4479C14.6865 19.0706 15.1561 19.581 15.7277 19.581C16.3096 19.581 16.769 19.0706 16.769 18.4479C16.7792 17.8252 16.3096 17.3148 15.7277 17.3148Z" fill="white"/>
</g>
<defs>
<clipPath id="clip0_1937_656">
<rect width="35" height="35" fill="white" transform="translate(0.0754395)"/>
</clipPath>
</defs>
</svg>
