<svg width="35" height="35" viewBox="0 0 35 35" fill="none" xmlns="http://www.w3.org/2000/svg">
<g clip-path="url(#clip0_1937_654)">
<path d="M17.5 0C7.83563 0 0 7.83563 0 17.5C0 27.1644 7.83563 35 17.5 35C27.1644 35 35 27.1644 35 17.5C35 7.83563 27.1644 0 17.5 0ZM20.7346 27.1483C20.2183 27.249 20.0521 26.931 20.0521 26.6583V23.8569C20.0521 22.9046 19.7181 22.2833 19.3506 21.9669C21.6256 21.7146 24.0144 20.8513 24.0144 16.9298C24.0144 15.8142 23.6163 14.9042 22.9629 14.1896C23.0679 13.9315 23.4179 12.8931 22.8623 11.4873C22.8623 11.4873 22.0063 11.2131 20.0579 12.5329C19.2398 12.3083 18.3677 12.196 17.5 12.1917C16.6323 12.196 15.7602 12.3083 14.9435 12.5344C12.9937 11.2146 12.1362 11.4888 12.1362 11.4888C11.5835 12.8946 11.9321 13.9329 12.0385 14.1896C11.3852 14.9042 10.9856 15.8142 10.9856 16.9298C10.9856 20.841 13.3685 21.716 15.6363 21.9742C15.3446 22.2294 15.0806 22.6785 14.9888 23.3392C14.4054 23.6002 12.9281 24.0508 12.0181 22.4904C12.0181 22.4904 11.4785 21.5104 10.4533 21.4375C10.4533 21.4375 9.45729 21.4244 10.3833 22.0588C10.3833 22.0588 11.0542 22.3723 11.5165 23.5521C11.5165 23.5521 12.1071 25.375 14.9479 24.7567V26.6569C14.9479 26.9267 14.7831 27.2431 14.2742 27.1483C10.2171 25.7994 7.29167 21.9727 7.29167 17.4635C7.29167 11.8242 11.8635 7.25521 17.5 7.25521C23.1365 7.25521 27.7083 11.8242 27.7083 17.4635C27.7083 21.9713 24.7873 25.7979 20.7346 27.1483Z" fill="white"/>
</g>
<defs>
<clipPath id="clip0_1937_654">
<rect width="35" height="35" fill="white"/>
</clipPath>
</defs>
</svg>
