<svg width="36" height="35" viewBox="0 0 36 35" fill="none" xmlns="http://www.w3.org/2000/svg">
<path d="M21.6823 9.19042C20.606 9.14083 20.2823 9.13208 17.5566 9.13208C14.831 9.13208 14.5087 9.14229 13.4325 9.19042C10.6631 9.31729 9.37393 10.6283 9.24706 13.3758C9.19893 14.4521 9.18727 14.7744 9.18727 17.5C9.18727 20.2256 9.19893 20.5479 9.24706 21.6256C9.37393 24.3658 10.6573 25.6842 13.4325 25.811C14.5073 25.8592 14.831 25.8708 17.5566 25.8708C20.2837 25.8708 20.606 25.8606 21.6823 25.811C24.4516 25.6856 25.7393 24.3702 25.8677 21.6256C25.9158 20.5494 25.926 20.2256 25.926 17.5C25.926 14.7744 25.9158 14.4521 25.8677 13.3758C25.7393 10.6298 24.4487 9.31729 21.6823 9.19042ZM17.5566 22.7427C14.6618 22.7427 12.3139 20.3962 12.3139 17.5C12.3139 14.6052 14.6618 12.2588 17.5566 12.2588C20.4514 12.2588 22.7994 14.6052 22.7994 17.5C22.7994 20.3948 20.4514 22.7427 17.5566 22.7427ZM23.0064 13.2767C22.3298 13.2767 21.7814 12.7283 21.7814 12.0517C21.7814 11.375 22.3298 10.8267 23.0064 10.8267C23.6831 10.8267 24.2314 11.375 24.2314 12.0517C24.2314 12.7269 23.6831 13.2767 23.0064 13.2767ZM20.9589 17.5C20.9589 19.3798 19.435 20.9023 17.5566 20.9023C15.6783 20.9023 14.1543 19.3798 14.1543 17.5C14.1543 15.6202 15.6783 14.0977 17.5566 14.0977C19.435 14.0977 20.9589 15.6202 20.9589 17.5ZM17.5566 0C7.89227 0 0.0566406 7.83563 0.0566406 17.5C0.0566406 27.1644 7.89227 35 17.5566 35C27.221 35 35.0566 27.1644 35.0566 17.5C35.0566 7.83563 27.221 0 17.5566 0ZM27.7037 21.7087C27.536 25.4202 25.4696 27.4765 21.7668 27.6471C20.6775 27.6967 20.3289 27.7083 17.5566 27.7083C14.7843 27.7083 14.4373 27.6967 13.3479 27.6471C9.63789 27.4765 7.58018 25.4173 7.40956 21.7087C7.35997 20.6208 7.34831 20.2723 7.34831 17.5C7.34831 14.7277 7.35997 14.3806 7.40956 13.2913C7.58018 9.58125 9.63935 7.52354 13.3479 7.35438C14.4373 7.30333 14.7843 7.29167 17.5566 7.29167C20.3289 7.29167 20.6775 7.30333 21.7668 7.35438C25.4783 7.525 27.5375 9.58854 27.7037 13.2913C27.7533 14.3806 27.765 14.7277 27.765 17.5C27.765 20.2723 27.7533 20.6208 27.7037 21.7087Z" fill="white"/>
</svg>
