<svg width="36" height="35" viewBox="0 0 36 35" fill="none" xmlns="http://www.w3.org/2000/svg">
<g clip-path="url(#clip0_1937_661)">
<path fill-rule="evenodd" clip-rule="evenodd" d="M28.6761 17.454C28.6761 19.6579 28.0363 21.7716 26.9382 23.5172L31.4204 28.018C33.6155 25.0785 34.9876 21.4041 34.9876 17.4535C34.9876 13.5028 33.615 9.82892 31.4204 6.88892L26.9382 11.3897C28.0357 13.1353 28.6761 15.156 28.6761 17.4529V17.454Z" fill="white"/>
<path fill-rule="evenodd" clip-rule="evenodd" d="M17.5246 28.6617C11.3958 28.6617 6.36509 23.6086 6.36509 17.4546C6.36509 11.3006 11.3963 6.2475 17.5246 6.2475C19.8116 6.2475 21.8231 6.89062 23.5621 8.085L28.0443 3.58422C25.1169 1.37812 21.4583 0 17.5246 0C7.91931 0 0.0536041 7.80828 0.0536041 17.5459C0.0536041 27.2836 7.91931 35 17.5246 35C21.5496 35 25.2082 33.6219 28.1356 31.418L23.6534 26.9172C21.9155 28.0197 19.8116 28.6628 17.5246 28.6628V28.6617Z" fill="white"/>
</g>
<defs>
<clipPath id="clip0_1937_661">
<rect width="35" height="35" fill="white" transform="translate(0.0187988)"/>
</clipPath>
</defs>
</svg>
