<svg width="36" height="35" viewBox="0 0 36 35" fill="none" xmlns="http://www.w3.org/2000/svg">
<g clip-path="url(#clip0_1937_659)">
<path d="M17.5378 0C7.87347 0 0.0378418 7.83563 0.0378418 17.5C0.0378418 27.1644 7.87347 35 17.5378 35C27.2022 35 35.0378 27.1644 35.0378 17.5C35.0378 7.83563 27.2022 0 17.5378 0ZM26.3841 14.0656C26.651 19.9573 22.257 26.5256 14.4783 26.5256C12.1128 26.5256 9.91222 25.8315 8.05868 24.6429C10.2812 24.9054 12.4993 24.2871 14.2595 22.909C12.4278 22.8754 10.8806 21.6635 10.3453 19.9996C11.003 20.125 11.6506 20.0885 12.2383 19.9281C10.2243 19.5227 8.83305 17.7085 8.87826 15.7675C9.44409 16.081 10.0887 16.2692 10.7755 16.291C8.91034 15.0442 8.38243 12.581 9.47909 10.6983C11.5441 13.2329 14.6314 14.8998 18.1124 15.0748C17.5014 12.4556 19.4891 9.93125 22.1943 9.93125C23.3974 9.93125 24.4868 10.4402 25.251 11.254C26.2047 11.0673 27.1031 10.7173 27.911 10.2375C27.5974 11.216 26.9339 12.0356 26.0691 12.5548C26.9164 12.4527 27.7243 12.2281 28.4739 11.8942C27.9139 12.7371 27.2051 13.475 26.3841 14.0656Z" fill="white"/>
</g>
<defs>
<clipPath id="clip0_1937_659">
<rect width="35" height="35" fill="white" transform="translate(0.0378418)"/>
</clipPath>
</defs>
</svg>
